# xmcd CD database file
#
# Track frame offsets:
#	150
#	74712
#	129506
#	144456
#	217394
#
# Disc length: 3349 seconds
#
# Revision: 0
# Processed by: cddbd v1.5.1PL0 Copyright (c) Steve Scherf et al.
# Submitted via: CDex 1.51
#
DISCID=570d1305
DTITLE=Al Gromer Khan - Tabris
DYEAR=1991
DGENRE=New Age
TTITLE0=Tabris
TTITLE1=Landscape And Sky
TTITLE2=Subhana Recall
TTITLE3=The Green Domes
TTITLE4=Subhana
EXTD=YEAR: 1991
EXTT0=
EXTT1=
EXTT2=
EXTT3=
EXTT4=
PLAYORDER=
